#!OML:ASF E:/inclinewalkrobotboard/Project1/Captureday1/Session1/subject1.ASF
:FULLY-SPECIFIED
:DEGREES
338
root 0 0 0 -1.1669774062440932 -2.8491847121938467 -0.8793525863893751
lowerback 10.948146072168015 0.5628615053429423 0.47714714284389187
upperback -1.1125862766959556 0.8814059541501256 0.9142753992841344
thorax -7.288970811768741 0.40520379908875154 0.447681063334334
lowerneck -13.412495021032578 -1.412171298113274 0.21270718176269737
upperneck 19.050407107848788 -1.408090615641704 -2.341997298132174
head 8.213743272879242 -0.8118287835408182 -1.0018661695961972
rclavicle -4.62939015553752E-16 -2.627353353155502E-16
rhumerus -11.208045008271464 -6.387419151958925 -66.92982846090254
rradius 43.483949399539085
rwrist 12.281635700649783
rhand -23.792078144539428 -6.453692050853048
rfingers 7.125020000000132
rthumb 2.9122793898567467 -36.58746804054016
lclavicle -9.770669521511386E-16 -8.090371251118625E-16
lhumerus -11.896655924288826 -4.225253899343336 68.34453417185394
lradius 44.07605298148301
lwrist -5.360168498473224
lhand -33.48569992013677 -11.664549802034259
lfingers 7.125020000000128
lthumb -6.772528602884898 17.390256385293483
rfemur 12.463191486126906 8.910124900125592 37.51553112628181
rtibia 28.72319345894575
rfoot -15.5519041948331 -2.1476468871213266
rtoes 6.550479241276524
lfemur -22.642343770270756 1.2497143385777725 -11.251398689300299
ltibia 58.7817234281558
lfoot 7.364541672876792 -9.720663069492822
ltoes -4.374106189070547
339
root 0 0 0 -1.1522941137243294 -2.854380722145306 -0.8623552752549943
lowerback 10.954484283163557 0.5652581424250864 0.4735477252280419
upperback -1.1336854325548138 0.8829805036860753 0.9050155114183139
thorax -7.315703015981152 0.4061479865647218 0.4395612249358577
lowerneck -13.368630437977126 -1.3928621154385212 0.23903406037070946
upperneck 19.050252221763643 -1.3775263267308375 -2.378130314898655
head 8.205844292222721 -0.7991772994869113 -1.0156740265343207
rclavicle -4.670375660099478E-16 -2.8344823439458966E-16
rhumerus -10.819826527682169 -6.127755962852696 -66.69168514302646
rradius 43.84952243677106
rwrist 12.46285273089623
rhand -23.921872895468287 -7.0848270028785745
rfingers 7.12502000000013
rthumb 2.7816457770379936 -37.20557136624099
lclavicle -9.777287919223345E-16 -8.05367322420794E-16
lhumerus -11.745765819565554 -4.260309819609879 68.23350064490805
lradius 44.1992874857208
lwrist -5.447829547878262
lhand -33.539519984853904 -11.956933015459347
lfingers 7.125020000000127
lthumb -6.823359789471885 17.10268925614114
rfemur 13.552222366116872 8.620386354629069 37.76728442410261
rtibia 31.350984357529278
rfoot -14.930212908334338 -1.6454859076113335
rtoes 7.171636632364629
lfemur -29.40295365464248 0.7490837318233591 -9.300873975601865
ltibia 54.37736422710817
lfoot 5.564908079955371 -6.069260427703476
ltoes -2.5907382950191904
340
root 0 0 0 -1.1407565511991518 -2.858398455657036 -0.8491446153400988
lowerback 10.95942139607785 0.5671391876514197 0.470806210357674
upperback -1.1500087565165074 0.8842230299197816 0.8976676434773245
thorax -7.336272723013875 0.4068782480061234 0.4332967374288219
lowerneck -13.334467942193797 -1.377842386729438 0.2595460876872166
upperneck 19.049862430773302 -1.3538410719609983 -2.4060621009860172
head 8.199583191288477 -0.7893095206809733 -1.0263471875119872
rclavicle -4.693058190068906E-16 -2.9676423702145715E-16
rhumerus -10.56304436717459 -5.95536933467045 -66.53483383254682
rradius 44.08982842085621
rwrist 12.58224360439334
rhand -24.007470784986815 -7.498972775723395
rfingers 7.125020000000129
rthumb 2.6956761783612917 -37.61356916804466
lclavicle -9.813158228147238E-16 -8.007395998372291E-16
lhumerus -11.697696643873911 -4.270629465643068 68.19761956076545
lradius 44.23849066023308
lwrist -5.47755432650817
lhand -33.55736525913805 -12.056437440083076
lfingers 7.125020000000127
lthumb -6.839674077743956 17.007854075140763
rfemur 14.06965177638158 8.355028923970783 37.82355667123055
rtibia 33.45465532411455
rfoot -14.354665873997053 -1.3129807640173077
rtoes 7.6148491293010805
lfemur -33.74600238591834 -0.1638179512773893 -8.414032384384637
ltibia 47.288862023338844
lfoot 2.9139399797297685 -2.2226112289707904
ltoes -0.7945357821352914
341
root 0 0 0 -1.1347669436560728 -2.8605264696004107 -0.8423853239282373
lowerback 10.961966299393634 0.5681576895727334 0.4694149808202193
upperback -1.1583904998472707 0.8848035933868659 0.8937522846891846
thorax -7.346589195400449 0.4072726467530618 0.43005651071923084
lowerneck -13.316949435469574 -1.3701427434148583 0.2700494421814806
upperneck 19.049512258242192 -1.3416385951661627 -2.4202363447361277
head 8.196272176992759 -0.7841943108267607 -1.0317707995281382
rclavicle -4.687207116112462E-16 -3.011293586066392E-16
rhumerus -10.468243080887063 -5.890444404365911 -66.47753370139722
rradius 44.17737087801025
rwrist 12.62589968100434
rhand -24.038957945639513 -7.649244455364739
rfingers 7.125020000000128
rthumb 2.6640715036537923 -37.76212423060112
lclavicle -9.859264033324367E-16 -7.97013448017351E-16
lhumerus -11.757162182709388 -4.255181381966764 68.23985895978944
lradius 44.190078182325436
lwrist -5.446512403089895
lhand -33.53714139571451 -11.950212938081236
lfingers 7.125020000000127
lthumb -6.819944758463379 17.114677951402918
rfemur 14.224566947217443 8.105506562223402 37.757065387059114
rtibia 35.23078046519334
rfoot -13.798752554472255 -1.0851015432803406
rtoes 7.953622332210247
lfemur -35.02780995024028 -1.3026634987011172 -8.667417257755648
ltibia 38.817532494021684
lfoot -0.25017999045296335 1.193987740794893
ltoes 0.4947527825733431
342
root 0 0 0 -1.1345899079429418 -2.8607429813004064 -0.8422343185051596
lowerback 10.962002259054742 0.5682523207874172 0.4692310379564736
upperback -1.1586041495024377 0.8846391991188233 0.8935346113253024
thorax -7.346461668471251 0.40732351488767615 0.4298768432651823
lowerneck -13.316739385169706 -1.3699939791503914 0.27018184237505444
upperneck 19.049351460572293 -1.3413458099803537 -2.420326467846216
head 8.196103992783845 -0.7840112914589453 -1.031824680506158
rclavicle -4.663223676661751E-16 -2.9817199075298534E-16
rhumerus -10.519379855153325 -5.922719046088391 -66.50981136863302
rradius 44.12814637538234
rwrist 12.60147323472145
rhand -24.02169152357151 -7.563621686466396
rfingers 7.125020000000128
rthumb 2.6811816516666136 -37.67720122719353
lclavicle -9.879336876602273E-16 -7.946421745294776E-16
lhumerus -11.891312588317444 -4.222327688408295 68.33558856448153
lradius 44.08125540252034
lwrist -5.373288056048778
lhand -33.49081750858444 -11.70258451869869
lfingers 7.125020000000127
lthumb -6.775762113578857 17.36135948239527
rfemur 14.077499095027644 7.85244870251967 37.58131589246534
rtibia 36.8589008986346
rfoot -13.205164586539658 -0.926505933650116
rtoes 8.241722033622151
lfemur -33.53395606636347 -2.491740330045457 -9.94686846154876
ltibia 30.187759966693328
lfoot -3.583563311625065 3.850589616126946
ltoes 1.2661781062206163
343
root 0 0 0 -1.1390456708394014 -2.8594556701210334 -0.8472310692402027
lowerback 10.960056732792474 0.5676143872115107 0.4700216429862898
upperback -1.1523779929214806 0.8839347480187345 0.8962912192025898
thorax -7.338184652678331 0.4070996040154893 0.43212775893245653
lowerneck -13.33020936763105 -1.3757739442879757 0.2621190687879909
upperneck 19.04943220681486 -1.3504242115874492 -2.4093105130499413
head 8.198460776197937 -0.7877157370890712 -1.0276648942818103
rclavicle -4.633886186661308E-16 -2.898630255672545E-16
rhumerus -10.681043255881647 -6.029722112809866 -66.60959643489943
rradius 43.97587575629685
rwrist 12.525346394436932
rhand -23.96752460184726 -7.300305681404938
rfingers 7.125020000000129
rthumb 2.735007034676925 -37.417753247151616
lclavicle -9.866436703573525E-16 -7.931582090966724E-16
lhumerus -12.067976568395842 -4.180050473608173 68.46113307903322
lradius 43.93901958301839
lwrist -5.2759984769969535
lhand -33.43026543741865 -11.378077835847234
lfingers 7.125020000000128
lthumb -6.7181444813355125 17.687426364161922
rfemur 13.635649412371333 7.565802951511898 37.284050990596306
rtibia 38.557068941172986
rfoot -12.494008309008247 -0.809438702658074
rtoes 8.531287318069612
lfemur -30.19342965944707 -3.5137889122840584 -11.848165471064513
ltibia 22.89174352265642
lfoot -6.55179524195956 5.529903750864772
ltoes 1.5774999424091156
344
root 0 0 0 -1.1465986262211056 -2.8570732397880763 -0.8555641800153506
lowerback 10.956852614016649 0.5665275553693373 0.4717605940562475
upperback -1.1418964789503394 0.8830578591171531 0.9009617356742243
thorax -7.324627665560204 0.4066801966497083 0.4360799459116451
lowerneck -13.352651527965783 -1.385402524857028 0.24865662743705047
upperneck 19.049808040429095 -1.3656049863809918 -2.3908971392330223
head 8.202478127046708 -0.7939794879320974 -1.0207113207984762
rclavicle -4.6131670487624515E-16 -2.774447112132716E-16
rhumerus -10.91677754083239 -6.1875517521038415 -66.75456905472713
rradius 43.753740789662004
rwrist 12.41414005614756
rhand -23.888479941712717 -6.916944321148664
rfingers 7.12502000000013
rthumb 2.8138236733836894 -37.041048810160966
lclavicle -9.848132881896056E-16 -7.924412548651066E-16
lhumerus -12.262329273660026 -4.1340858302844 68.59946104240116
lradius 43.78281264567708
lwrist -5.167994119156813
lhand -33.36388304398362 -11.021494887434324
lfingers 7.125020000000129
lthumb -6.654837349800079 18.04876396104074
rfemur 12.894618694520325 7.222215347574789 36.851015798563104
rtibia 40.485454732174
rfoot -11.606758046952882 -0.7171569443439338
rtoes 8.856310240404646
lfemur -25.740446848626185 -4.264099553245596 -14.093876890669815
ltibia 17.44195749547134
lfoot -9.032756197946412 6.317672733466949
ltoes 1.5036788802619743
345
root 0 0 0 -1.1557101734773565 -2.8540422510267875 -0.8655253757929917
lowerback 10.953069985811199 0.5652391187940167 0.4742220191370292
upperback -1.1292946377071857 0.8822403618539294 0.9065261717040597
thorax -7.308556083435892 0.40614821668024054 0.44094331311871104
lowerneck -13.379407906627339 -1.3969156961818445 0.23255748323060615
upperneck 19.05035626467294 -1.3838042517305857 -2.368812488122132
head 8.207280823758202 -0.8015196702308711 -1.0123647764732497
rclavicle -4.611638011206657E-16 -2.62656942199495E-16
rhumerus -11.193078065091122 -6.373167815044414 -66.92436067609151
rradius 43.49234539096061
rwrist 12.28350658069579
rhand -23.7956525141827 -6.466569544912177
rfingers 7.125020000000132
rthumb 2.9069071579824435 -36.598281088934854
lclavicle -9.847441144707814E-16 -7.922603141140261E-16
lhumerus -12.456722528536758 -4.088322922774605 68.7384984292104
lradius 43.62606316928368
lwrist -5.058765025498517
lhand -33.2973411441529 -10.66245845150327
lfingers 7.12502000000013
lthumb -6.591200678210092 18.412689863260972
rfemur 11.80463468438558 6.803996041125594 36.25312377473297
rtibia 42.734536553903034
rfoot -10.498547063980913 -0.6507132369989286
rtoes 9.225387795101577
lfemur -20.59459323011495 -4.798480880513266 -16.566850620414545
ltibia 13.340105721928495
lfoot -11.187307368065728 6.507703605164457
ltoes 1.2046953611369986
